<?xml version="1.0" encoding="UTF-8"?>
<svg width="192px" height="192px" viewBox="0 0 192 192" version="1.1" xmlns="http://www.w3.org/2000/svg" xmlns:xlink="http://www.w3.org/1999/xlink">
    <!-- Generator: Sketch 45.2 (43514) - http://www.bohemiancoding.com/sketch -->
    <title>256</title>
    <desc>Created with Sketch.</desc>
    <defs>
        <linearGradient x1="50%" y1="100%" x2="50%" y2="0%" id="linearGradient-1">
            <stop stop-color="#7196FC" offset="0%"></stop>
            <stop stop-color="#35A2FF" offset="100%"></stop>
        </linearGradient>
    </defs>
    <g id="Page-1" stroke="none" stroke-width="1" fill="none" fill-rule="evenodd">
        <g id="256">
            <rect id="Rectangle" fill="url(#linearGradient-1)" x="0" y="0" width="192" height="192"></rect>
            <polygon id="Rectangle-2-Copy-9" fill-opacity="0.1" fill="#FFFFFF" points="128 128 192 128 128 192"></polygon>
            <polygon id="Rectangle-2-Copy-8" fill-opacity="0.1" fill="#FFFFFF" points="64 128 128 128 64 192"></polygon>
            <polygon id="Rectangle-2-Copy-7" fill-opacity="0.1" fill="#FFFFFF" points="0 128 64 128 0 192"></polygon>
            <polygon id="Rectangle-2-Copy-6" fill-opacity="0.1" fill="#FFFFFF" points="128 64 192 64 128 128"></polygon>
            <polygon id="Rectangle-2-Copy-5" fill-opacity="0.1" fill="#FFFFFF" points="64 64 128 64 64 128"></polygon>
            <polygon id="Rectangle-2-Copy-4" fill-opacity="0.1" fill="#FFFFFF" points="0 64 64 64 0 128"></polygon>
            <polygon id="Rectangle-2-Copy-3" fill-opacity="0.1" fill="#FFFFFF" points="128 0 192 0 128 64"></polygon>
            <polygon id="Rectangle-2-Copy" fill-opacity="0.1" fill="#FFFFFF" points="64 0 128 0 64 64"></polygon>
            <polygon id="Rectangle-2" fill-opacity="0.1" fill="#FFFFFF" points="0 0 64 0 0 64"></polygon>
        </g>
    </g>
</svg>